<svg xmlns="http://www.w3.org/2000/svg" viewBox="0 0 141.87 131.61"><defs><style>.cls-1{fill:#87CEFA;fill-rule:evenodd;}</style></defs><g id="Слой_2" data-name="Слой 2"><g id="Vrstva_1" data-name="Vrstva 1"><path class="cls-1" d="M86.6,102.63c-11.93,2.34-19.4,2.35-31.33,0a.65.65,0,0,0-.72.46.88.88,0,0,0,.18,1c9.33,9.22,23.08,9.22,32.41,0a.88.88,0,0,0,.18-1,.65.65,0,0,0-.72-.46ZM130,54.8a9.59,9.59,0,0,1,4.61,1.2c7.92,4.26,8.18,16.68,6.28,24.26-1.62,6.45-6.12,14.81-13.62,15.12-9.49,22.16-32,36.23-56.33,36.23S24.09,117.54,14.6,95.38C7.1,95.07,2.6,86.71,1,80.26-.92,72.68-.66,60.26,7.26,56a9.59,9.59,0,0,1,4.61-1.2C12.89,24.38,39,0,70.94,0S129,24.38,130,54.8ZM131.92,61c3.87,2.08,5.43,10.09,3.47,17.89s-6.68,12.42-10.55,10.34a5.26,5.26,0,0,1-1-.75c-6.92,21.69-28,37.47-52.86,37.47S25,110.16,18.07,88.47a5.26,5.26,0,0,1-1,.75c-3.87,2.08-8.6-2.55-10.55-10.34S6.08,63.07,10,61c2.6-1.4,5.28.45,6.91,2.47,1.37-6.43,4-12.71,8-16.42,13.44-12.37,30.89,4.44,46,4.44S103.53,34.67,117,47c4,3.71,6.66,10,8,16.42,1.66-2.06,4.31-3.87,6.9-2.47ZM97.56,74.1a7,7,0,1,0,7,7,7,7,0,0,0-7-7Zm-53.25,0a7,7,0,1,0,7,7A7,7,0,0,0,44.31,74.1Z"/></g></g></svg>