<svg xmlns="http://www.w3.org/2000/svg" viewBox="0 0 224.23 124.48"><defs><style>.cls-1{fill:#FFB6C1;fill-rule:evenodd;}</style></defs><g id="Слой_2" data-name="Слой 2"><g id="Vrstva_1" data-name="Vrstva 1"><path class="cls-1" d="M168,69.06c0,.53,0,1,0,1.58,0,29.73-25,53.84-55.93,53.84S56.19,100.37,56.19,70.64c0-.53,0-1,0-1.58a43.73,43.73,0,0,1-3.43-17c0-.9,0-1.8.08-2.69C45.16,66.29,46.09,88.31,0,82.48,21.55,68.92,13.36,54.7,16.84,37.72,20.9,17.9,34.47,10.28,47.64,11.9,48,6.39,51.1,1.08,57,.14c4.38-.7,8,1.35,10.46,4.53,3.46-2,7.6-2.59,11.4-.32a10.11,10.11,0,0,1,3.77,3.93,68.53,68.53,0,0,1,58.94,0,10.21,10.21,0,0,1,3.78-3.93c3.8-2.27,7.94-1.72,11.39.32,2.44-3.18,6.09-5.23,10.46-4.53,5.92.94,9,6.25,9.38,11.76,13.17-1.62,26.73,6,30.8,25.82,3.48,17-4.71,31.2,16.84,44.76-46.09,5.83-45.17-16.19-52.87-33.07.06.89.09,1.79.09,2.69a43.56,43.56,0,0,1-3.44,17ZM62.15,32.27c29.46-16.5,11.27-33.62,3.23-16.73C64.19-3.13,41,6,62.15,32.27Zm99.93,0C183.28,6,160-3.13,158.85,15.54c-8-16.89-26.23.23,3.23,16.73ZM135.14,41.2c-22.06,24.58-55.55-3.65-73.15,26-.09,1.15-.13,2.3-.13,3.47,0,26.6,22.5,48.17,50.25,48.17s50.26-21.57,50.26-48.17a46.26,46.26,0,0,0-3.54-17.77,55.22,55.22,0,0,0-8.27-11.24c-.18.34-.35.67-.54,1a33,33,0,0,1-39.8,15.12A32.9,32.9,0,0,0,135.14,41.2Zm-46.95,33a6.37,6.37,0,1,0,6.37,6.37,6.37,6.37,0,0,0-6.37-6.37Zm47.84,0a6.37,6.37,0,1,0,6.37,6.37A6.37,6.37,0,0,0,136,74.23Zm-9.67,25.94c-10.85,2.13-17.65,2.13-28.49,0a.61.61,0,0,0-.66.42.83.83,0,0,0,.17.87c8.48,8.37,21,8.37,29.47,0a.83.83,0,0,0,.16-.87A.59.59,0,0,0,126.36,100.17Z"/></g></g></svg>